<?xml version="1.0" encoding="UTF-8"?>
<svg width="100px" height="100px" viewBox="0 0 100 100" version="1.1" xmlns="http://www.w3.org/2000/svg" xmlns:xlink="http://www.w3.org/1999/xlink">
    <!-- Generator: Sketch 51.3 (57544) - http://www.bohemiancoding.com/sketch -->
    <title>mdpi/LogoJRX-web</title>
    <desc>Created with Sketch.</desc>
    <defs></defs>
    <g id="05-Contacto" stroke="none" stroke-width="1" fill="none" fill-rule="evenodd">
        <g id="JRXW/-JRX-Web-Sketch-Contacto01+footer" transform="translate(-80.000000, -20.000000)">
            <g id="01" transform="translate(80.000000, 20.000000)">
                <g id="Header">
                    <g id="LogoJRX-web">
                        <rect id="Rectangle-2" fill="#0B113A" x="0" y="0" width="100" height="100"></rect>
                        <g id="Page-1" transform="translate(10.000000, 31.000000)">
                            <path d="M1.5845,18.31805 L4.9445,18.31805 L4.9445,15.19805 L1.5845,15.19805 L1.5845,18.31805 Z M4.9445,33.94355 C4.9445,37.27955 3.408,37.73555 0.84,37.73555 L0,37.73555 L0,35.04755 L0.6,35.04755 C0.936,35.04755 1.584,35.04755 1.584,33.87105 L1.584,19.83005 L4.9445,19.83005 L4.9445,33.94355 Z" id="Fill-1" fill="#FEFEFE"></path>
                            <path d="M17.8567,26.383 C17.5207,26.6465 16.9687,26.863 15.5767,27.079 C14.3282,27.2945 13.2962,27.607 13.2962,28.999 C13.2962,30.175 14.2087,30.5355 14.8567,30.5355 C16.3447,30.5355 17.8567,29.575 17.8567,28.015 L17.8567,26.383 Z M21.1452,30.103 C21.1452,31.6155 21.4812,31.9515 21.8892,32.0955 L21.8892,32.5995 L18.2647,32.5995 C18.0727,31.999 18.0247,31.8075 17.9527,31.087 C17.1847,31.879 16.1047,32.935 13.8247,32.935 C11.9042,32.935 9.9362,31.855 9.9362,29.215 C9.9362,26.719 11.5202,25.4465 13.6562,25.1345 L16.6807,24.6785 C17.2087,24.6065 17.8567,24.391 17.8567,23.6705 C17.8567,22.2545 16.5127,22.1825 15.6482,22.1825 C13.9687,22.1825 13.6802,23.2145 13.5847,23.9585 L10.3442,23.9585 C10.7282,20.046 13.4402,19.4945 16.0567,19.4945 C17.8567,19.4945 21.1452,20.046 21.1452,23.1905 L21.1452,30.103 Z" id="Fill-3" fill="#FEFEFE"></path>
                            <path d="M26.76025,19.8303 L29.97675,19.8303 L29.97675,22.0383 L30.02425,22.0383 C30.72075,20.7423 31.48875,19.4943 33.52875,19.4943 C33.74475,19.4943 33.96075,19.5183 34.17675,19.5423 L34.17675,22.9503 C33.88875,22.9028 33.52875,22.9028 33.21675,22.9028 C30.60075,22.9028 30.12075,24.5348 30.12075,25.9508 L30.12075,32.5993 L26.76025,32.5993 L26.76025,19.8303 Z" id="Fill-4" fill="#FEFEFE"></path>
                            <path d="M45.33665,26.383 C45.00065,26.6465 44.44865,26.863 43.05665,27.079 C41.80815,27.2945 40.77615,27.607 40.77615,28.999 C40.77615,30.175 41.68865,30.5355 42.33665,30.5355 C43.82465,30.5355 45.33665,29.575 45.33665,28.015 L45.33665,26.383 Z M48.62515,30.103 C48.62515,31.6155 48.96115,31.9515 49.36915,32.0955 L49.36915,32.5995 L45.74465,32.5995 C45.55265,31.999 45.50465,31.8075 45.43265,31.087 C44.66465,31.879 43.58465,32.935 41.30465,32.935 C39.38415,32.935 37.41615,31.855 37.41615,29.215 C37.41615,26.719 39.00015,25.4465 41.13615,25.1345 L44.16065,24.6785 C44.68865,24.6065 45.33665,24.391 45.33665,23.6705 C45.33665,22.2545 43.99265,22.1825 43.12815,22.1825 C41.44865,22.1825 41.16015,23.2145 41.06465,23.9585 L37.82415,23.9585 C38.20815,20.046 40.92015,19.4945 43.53665,19.4945 C45.33665,19.4945 48.62515,20.046 48.62515,23.1905 L48.62515,30.103 Z" id="Fill-5" fill="#FEFEFE"></path>
                            <polygon id="Fill-6" fill="#FEFEFE" points="65.68945 32.5993 61.53645 32.5993 59.32845 28.7588 57.12045 32.5993 53.06395 32.5993 57.40845 26.0948 53.23195 19.8303 57.31245 19.8303 59.47245 23.5503 61.58495 19.8303 65.54545 19.8303 61.34495 26.0948"></polygon>
                            <path d="M76.4384,26.383 C76.1024,26.6465 75.5504,26.863 74.1579,27.079 C72.9099,27.2945 71.8779,27.607 71.8779,28.999 C71.8779,30.175 72.7899,30.5355 73.4384,30.5355 C74.9264,30.5355 76.4384,29.575 76.4384,28.015 L76.4384,26.383 Z M79.7269,30.103 C79.7269,31.6155 80.0629,31.9515 80.4704,32.0955 L80.4704,32.5995 L76.8464,32.5995 C76.6549,31.999 76.6064,31.8075 76.5344,31.087 C75.7664,31.879 74.6864,32.935 72.4064,32.935 C70.4859,32.935 68.5179,31.855 68.5179,29.215 C68.5179,26.719 70.1019,25.4465 72.2384,25.1345 L75.2619,24.6785 C75.7904,24.6065 76.4384,24.391 76.4384,23.6705 C76.4384,22.2545 75.0944,22.1825 74.2304,22.1825 C72.5504,22.1825 72.2619,23.2145 72.1659,23.9585 L68.9259,23.9585 C69.3099,20.046 72.0219,19.4945 74.6379,19.4945 C76.4384,19.4945 79.7269,20.046 79.7269,23.1905 L79.7269,30.103 Z" id="Fill-7" fill="#FEFEFE"></path>
                            <polygon id="Fill-8" fill="#FEFEFE" points="70.121 16.69805 78.867 16.69805 78.867 15.19805 70.121 15.19805"></polygon>
                            <path d="M25.5424,17.0526 C27.4214,9.0431 34.6064,3.0776 43.1889,3.0776 C51.7714,3.0776 58.9559,9.0431 60.8344,17.0526 C60.8344,17.0526 58.2769,0.0001 41.6499,0.0001 C31.6744,0.0001 23.4394,7.4276 22.1589,17.0526 L25.5424,17.0526 Z" id="Fill-9" fill="#F1C046"></path>
                        </g>
                    </g>
                </g>
            </g>
        </g>
    </g>
</svg>